<?xml version="1.0" encoding="UTF-8"?>
<svg version="1.1" xmlns="http://www.w3.org/2000/svg" width="152" height="152">
<path d="M0 0 C2.65206575 0.07577331 4.41422821 0.47102049 6.41015625 2.2734375 C10.25537345 7.04913 11.45956395 11.9107776 11 18 C9.26978232 24.68056272 4.66410722 29.33640725 -1 33 C-11.12900301 38.48320381 -22.04434245 42.22902857 -33.0065918 45.65429688 C-37.36421553 47.02920013 -41.19233717 48.38566655 -45 51 C-40.14102352 56.93874903 -35.94250895 61.52874552 -29 65 C-24.98730417 65 -24.07422266 64.74339228 -20.8125 62.8125 C-20.02230469 62.35230469 -19.23210937 61.89210937 -18.41796875 61.41796875 C-17.62003906 60.95003906 -16.82210937 60.48210938 -16 60 C-14.54315722 59.20559372 -13.08483779 58.413889 -11.625 57.625 C-10.07991114 56.75605723 -8.53849295 55.88056832 -7 55 C-6.05253906 54.46375 -5.10507813 53.9275 -4.12890625 53.375 C1.71588229 49.89762249 5.29534362 47.31086488 8 41 C10.46377407 41.37823397 11.7113351 41.69499557 13.44921875 43.53125 C16.59929457 48.53957243 18.40846014 53.00208534 18 59 C17.26023381 61.59411344 16.27859544 63.59033937 15 66 C14.67 66.66 14.34 67.32 14 68 C13.34 68 12.68 68 12 68 C11.77957031 68.58394531 11.55914062 69.16789062 11.33203125 69.76953125 C9.58236304 72.69932758 7.57221865 73.88796645 4.6875 75.6875 C3.74261719 76.28949219 2.79773438 76.89148438 1.82421875 77.51171875 C-0.86664651 78.92972658 -3.00625054 79.59101783 -6 80 C-5.56429687 80.49628906 -5.12859375 80.99257812 -4.6796875 81.50390625 C-3.42892127 82.93064608 -2.18176659 84.36055702 -0.9375 85.79296875 C0.23147663 87.12456511 1.41495938 88.44388683 2.625 89.73828125 C11.03907326 98.91926223 14.552093 109.84452288 14.2421875 122.171875 C13.46071915 131.29740863 10.62067124 138.52170879 4 145 C1.77734375 146.24609375 1.77734375 146.24609375 0 147 C0.44549979 144.40125125 0.9057323 142.19408057 2.0625 139.8125 C4.36886439 132.89340683 3.38296492 126.09122152 0.45703125 119.515625 C-4.0253995 111.77652204 -10.67958463 105.96104805 -18 101 C-18.98742187 100.28199219 -19.97484375 99.56398438 -20.9921875 98.82421875 C-22.04664063 98.07785156 -23.10109375 97.33148438 -24.1875 96.5625 C-25.17105469 95.86253906 -26.15460938 95.16257812 -27.16796875 94.44140625 C-29.90013043 92.73146402 -29.90013043 92.73146402 -32.86328125 93.27734375 C-33.92095703 93.63505859 -33.92095703 93.63505859 -35 94 C-31.85914093 97.42639171 -29.037592 99.67797357 -24.89453125 101.8984375 C-22.02423788 103.56735035 -19.46464371 105.60552612 -16.84375 107.63671875 C-14.94141947 109.11630282 -14.94141947 109.11630282 -12.375 110.375 C-6.81765356 114.17739494 -2.90554537 120.64818212 -1 127 C-0.48592928 133.11988953 -0.40264678 138.34998064 -3 144 C-3.66 144 -4.32 144 -5 144 C-5 143.34 -5 142.68 -5 142 C-5.85271484 141.59587891 -5.85271484 141.59587891 -6.72265625 141.18359375 C-9.08904504 139.95372102 -11.23394499 138.56336156 -13.4375 137.0625 C-16.56991819 134.93245563 -19.7499993 132.94522101 -23 131 C-50.25542297 113.95343441 -50.25542297 113.95343441 -53.6171875 101.76171875 C-54.59208185 93.91825054 -52.41778524 87.5214925 -48 81 C-48.804375 80.4225 -49.60875 79.845 -50.4375 79.25 C-57.00258639 73.79737455 -63.85921231 65.47246909 -65.37109375 56.89453125 C-65.60732613 49.48795148 -63.15746037 43.39734956 -58.09765625 37.953125 C-52.52789784 32.94996389 -46.41660353 29.07631668 -39.6875 25.8125 C-32.02183421 22.0497704 -24.47914552 18.07059547 -16.95068359 14.04150391 C-15.16446391 13.08781014 -13.37347881 12.14305569 -11.58203125 11.19921875 C-10.60621094 10.67972656 -9.63039062 10.16023437 -8.625 9.625 C-7.79226562 9.18414062 -6.95953125 8.74328125 -6.1015625 8.2890625 C-3.20637902 6.51320646 -1.34337024 5.09254167 -0.3125 1.8125 C-0.209375 1.214375 -0.10625 0.61625 0 0 Z " fill="#EE762F" transform="translate(97,3)"/>
<path d="M0 0 C2.65206575 0.07577331 4.41422821 0.47102049 6.41015625 2.2734375 C10.25537345 7.04913 11.45956395 11.9107776 11 18 C9.26978232 24.68056272 4.66410722 29.33640725 -1 33 C-11.12900301 38.48320381 -22.04434245 42.22902857 -33.0065918 45.65429688 C-37.36421553 47.02920013 -41.19233717 48.38566655 -45 51 C-39.46244502 57.90282766 -39.46244502 57.90282766 -32.375 63.0625 C-29 65 -29 65 -27 68 C-29.69721305 69.96560011 -32.39614216 71.92851143 -35.1015625 73.8828125 C-36.80154272 75.12457703 -38.48993746 76.38304202 -40.1484375 77.6796875 C-44.48952063 81.03502249 -44.48952063 81.03502249 -46.87890625 80.87109375 C-52.1736856 78.69662635 -55.35425936 74.55020769 -58.6875 70.0625 C-59.45449219 69.04285156 -60.22148438 68.02320312 -61.01171875 66.97265625 C-64.74069438 61.397508 -65.99706296 56.62259713 -65 50 C-61.39872009 39.02865889 -52.88145152 32.62135285 -42.94921875 27.39453125 C-41.87285156 26.87246094 -40.79648437 26.35039062 -39.6875 25.8125 C-32.02183421 22.0497704 -24.47914552 18.07059547 -16.95068359 14.04150391 C-15.16446391 13.08781014 -13.37347881 12.14305569 -11.58203125 11.19921875 C-10.60621094 10.67972656 -9.63039062 10.16023437 -8.625 9.625 C-7.79226562 9.18414062 -6.95953125 8.74328125 -6.1015625 8.2890625 C-3.20637902 6.51320646 -1.34337024 5.09254167 -0.3125 1.8125 C-0.209375 1.214375 -0.10625 0.61625 0 0 Z " fill="#E33E4E" transform="translate(97,3)"/>
<path d="M0 0 C3.11188065 1.13849292 5.01906533 2.81797111 7.5625 4.9375 C9.26053422 5.89865144 10.95917265 6.85889582 12.66796875 7.80078125 C15.51715271 9.51029163 18.09512287 11.54090772 20.71875 13.57421875 C22.62108053 15.05380282 22.62108053 15.05380282 25.1875 16.3125 C30.74484644 20.11489494 34.65695463 26.58568212 36.5625 32.9375 C37.07657072 39.05738953 37.15985322 44.28748064 34.5625 49.9375 C33.9025 49.9375 33.2425 49.9375 32.5625 49.9375 C32.5625 49.2775 32.5625 48.6175 32.5625 47.9375 C31.99402344 47.66808594 31.42554688 47.39867187 30.83984375 47.12109375 C28.47345496 45.89122102 26.32855501 44.50086156 24.125 43 C20.99258181 40.86995563 17.8125007 38.88272101 14.5625 36.9375 C-10.26328642 21.4105204 -10.26328642 21.4105204 -13.45703125 13.37109375 C-13.43102762 10.13104108 -12.45900006 9.13536604 -10.25 6.8125 C-9.63769531 6.14992188 -9.02539062 5.48734375 -8.39453125 4.8046875 C-3.27075498 -0.08386551 -3.27075498 -0.08386551 0 0 Z " fill="#E74352" transform="translate(59.4375,97.0625)"/>
<path d="M0 0 C10.98505278 8.11536203 17.90514513 19.55801459 20 33 C21.11189782 44.14986421 18.88689288 53.47549942 11.81640625 62.22265625 C9.97509478 64.02436962 8.35840148 64.99962311 6 66 C6.44549979 63.40125125 6.9057323 61.19408057 8.0625 58.8125 C10.36886439 51.89340683 9.38296492 45.09122152 6.45703125 38.515625 C-0.91692826 25.78417748 -13.94916062 18.61640129 -26 11 C-22.97665691 7.58420372 -20.23545493 6.01623879 -16 4.375 C-11.90645058 2.8095233 -11.90645058 2.8095233 -8 0.8515625 C-5.08981257 -0.38754074 -3.13565247 -0.43550729 0 0 Z " fill="#0261A9" transform="translate(91,84)"/>
<path d="M0 0 C3.22172014 1.51610359 4.98307352 4.25695221 7.125 7 C9.46627718 9.65344747 11.67414541 11.37840606 14.75 13.0625 C18.125 15 18.125 15 20.125 18 C17.42778695 19.96560011 14.72885784 21.92851143 12.0234375 23.8828125 C10.32345728 25.12457703 8.63506254 26.38304202 6.9765625 27.6796875 C2.63547937 31.03502249 2.63547937 31.03502249 0.24609375 30.87109375 C-5.14619736 28.65658009 -8.37701991 24.35492738 -11.6875 19.75 C-12.09419922 19.19570312 -12.50089844 18.64140625 -12.91992188 18.0703125 C-13.91091711 16.71789547 -14.89381466 15.35955093 -15.875 14 C-13.62901214 10.46565428 -11.56868263 7.40156706 -8.3125 4.75 C-7.73371094 4.27046875 -7.15492187 3.7909375 -6.55859375 3.296875 C-2.27861446 0 -2.27861446 0 0 0 Z " fill="#023778" transform="translate(49.875,53)"/>
<path d="M0 0 C2.46377407 0.37823397 3.7113351 0.69499557 5.44921875 2.53125 C8.59929457 7.53957243 10.40846014 12.00208534 10 18 C9.26023381 20.59411344 8.27859544 22.59033937 7 25 C6.67 25.66 6.34 26.32 6 27 C5.34 27 4.68 27 4 27 C3.77957031 27.58523437 3.55914062 28.17046875 3.33203125 28.7734375 C1.58268368 31.69756687 -0.42019936 32.8481333 -3.3125 34.625 C-4.25738281 35.21539062 -5.20226562 35.80578125 -6.17578125 36.4140625 C-12.8838843 40.18099174 -12.8838843 40.18099174 -16.3125 39.625 C-16.869375 39.41875 -17.42625 39.2125 -18 39 C-17.21625 38.79375 -16.4325 38.5875 -15.625 38.375 C-12.74137933 37.21889654 -12.74137933 37.21889654 -11.8125 34.1875 C-11.544375 33.135625 -11.27625 32.08375 -11 31 C-10.62875 30.195625 -10.2575 29.39125 -9.875 28.5625 C-8.75517537 25.28301358 -8.87242365 22.44456147 -9 19 C-9 18.01 -9 17.02 -9 16 C-9.66 16.33 -10.32 16.66 -11 17 C-11 16.34 -11 15.68 -11 15 C-12.32 14.67 -13.64 14.34 -15 14 C-14.25234375 13.57589844 -13.5046875 13.15179688 -12.734375 12.71484375 C-6.69122884 9.11584963 -2.79801 6.52869 0 0 Z " fill="#F6AB7C" transform="translate(105,44)"/>
<path d="M0 0 C4.00735217 0.60110283 6.55469371 2.66602028 9.75 5.0625 C10.73484375 5.79597656 11.7196875 6.52945313 12.734375 7.28515625 C13.48203125 7.85105469 14.2296875 8.41695312 15 9 C14.67 9.99 14.34 10.98 14 12 C12.09140719 12.66968169 10.18172489 13.33648511 8.265625 13.984375 C2.99881702 16.34535789 -0.9863608 20.94931182 -5 25 C-7.00405206 19.45938549 -7.68513635 14.74088825 -6 9 C-4.24578855 5.79771372 -2.23141764 2.88651273 0 0 Z " fill="#F8E1D4" transform="translate(50,84)"/>
<path d="M0 0 C2.46377407 0.37823397 3.7113351 0.69499557 5.44921875 2.53125 C8.59929457 7.53957243 10.40846014 12.00208534 10 18 C9.26023381 20.59411344 8.27859544 22.59033937 7 25 C6.67 25.66 6.34 26.32 6 27 C5.34 27 4.68 27 4 27 C3.71125 27.639375 3.4225 28.27875 3.125 28.9375 C2 31 2 31 0 32 C0 30.02 0 28.04 0 26 C0.66 26 1.32 26 2 26 C2 18.08 2 10.16 2 2 C1.34 2 0.68 2 0 2 C0 1.34 0 0.68 0 0 Z " fill="#FBCBAC" transform="translate(105,44)"/>
<path d="M0 0 C1 3 1 3 0.4375 5.875 C-0.05540321 9.39573721 0.57799029 10.82139007 2 14 C2 15.32 2 16.64 2 18 C1.34 18.66 0.68 19.32 0 20 C-2.00907998 18.57391198 -4.00669514 17.13533968 -6 15.6875 C-6.57234375 15.28337891 -7.1446875 14.87925781 -7.734375 14.46289062 C-9.21208644 13.38099475 -10.61254109 12.19544451 -12 11 C-12 10.01 -12 9.02 -12 8 C-9.375 5.95703125 -9.375 5.95703125 -6 3.8125 C-5.42765625 3.44447266 -4.8553125 3.07644531 -4.265625 2.69726562 C-2.84975538 1.78874929 -1.42562203 0.89313523 0 0 Z " fill="#CD794A" transform="translate(65,74)"/>
<path d="M0 0 C0.33 0 0.66 0 1 0 C1.02725341 1.7290774 1.04650987 3.45828176 1.0625 5.1875 C1.07410156 6.15042969 1.08570313 7.11335938 1.09765625 8.10546875 C1.00486622 10.85576513 0.62111685 13.32479591 0 16 C-0.66 16 -1.32 16 -2 16 C-1.938125 16.928125 -1.87625 17.85625 -1.8125 18.8125 C-2 22 -2 22 -3.5 23.875 C-4.2425 24.431875 -4.2425 24.431875 -5 25 C-7.00586991 19.45435967 -7.67729139 14.74662904 -6 9 C-4.27736454 5.77495237 -2.33993992 2.81191644 0 0 Z " fill="#FDF9F8" transform="translate(50,84)"/>
<path d="M0 0 C0 6.6 0 13.2 0 20 C-0.99 20.33 -1.98 20.66 -3 21 C-3.309375 21.969375 -3.61875 22.93875 -3.9375 23.9375 C-5 27 -5 27 -6.875 28.4375 C-9.31555804 29.08353007 -10.64656559 28.84051229 -13 28 C-12.21625 27.79375 -11.4325 27.5875 -10.625 27.375 C-7.74137933 26.21889654 -7.74137933 26.21889654 -6.8125 23.1875 C-6.4103125 21.6096875 -6.4103125 21.6096875 -6 20 C-5.62875 19.195625 -5.2575 18.39125 -4.875 17.5625 C-3.75517537 14.28301358 -3.87242365 11.44456147 -4 8 C-4 7.01 -4 6.02 -4 5 C-4.99 5.495 -4.99 5.495 -6 6 C-6 5.34 -6 4.68 -6 4 C-7.32 3.67 -8.64 3.34 -10 3 C-6.12731266 0.34444297 -4.97993805 0 0 0 Z " fill="#F5965C" transform="translate(100,55)"/>
<path d="M0 0 C0.99 0 1.98 0 3 0 C3.90901939 3.04842865 4.06173367 5.59661636 3.87890625 8.765625 C3.83056641 9.65507813 3.78222656 10.54453125 3.73242188 11.4609375 C3.64831055 12.84152344 3.64831055 12.84152344 3.5625 14.25 C3.51029297 15.18585937 3.45808594 16.12171875 3.40429688 17.0859375 C3.27493175 19.39098887 3.13997966 21.69557289 3 24 C2.34 24 1.68 24 1 24 C1 25.98 1 27.96 1 30 C0.34 29.67 -0.32 29.34 -1 29 C-0.67 21.08 -0.34 13.16 0 5 C-0.66 4.67 -1.32 4.34 -2 4 C-1.34 2.68 -0.68 1.36 0 0 Z " fill="#F9B890" transform="translate(104,46)"/>
<path d="M0 0 C2.97 1.98 5.94 3.96 9 6 C8.67 6.99 8.34 7.98 8 9 C5.93359375 9.94921875 5.93359375 9.94921875 3.4375 10.6875 C2.19806641 11.06455078 2.19806641 11.06455078 0.93359375 11.44921875 C0.29550781 11.63097656 -0.34257813 11.81273438 -1 12 C-2.45606519 7.47907032 -1.27032841 4.48351204 0 0 Z " fill="#F8BF9B" transform="translate(56,87)"/>
<path d="M0 0 C0.33 0 0.66 0 1 0 C1.25293066 5.97197398 0.95860406 11.87286395 0.3125 17.8125 C0.12107422 19.67841797 0.12107422 19.67841797 -0.07421875 21.58203125 C-1.17465455 25.64482166 -2.82996246 27.3113575 -6 30 C-6.66 29.34 -7.32 28.68 -8 28 C-7.34 28 -6.68 28 -6 28 C-5.67 25.69 -5.34 23.38 -5 21 C-4.67 21.66 -4.34 22.32 -4 23 C-3.34 23 -2.68 23 -2 23 C-2.18304688 22.33226563 -2.36609375 21.66453125 -2.5546875 20.9765625 C-3.10252467 17.31470352 -2.67015211 13.99990756 -2.125 10.375 C-1.98771484 9.37339844 -1.98771484 9.37339844 -1.84765625 8.3515625 C-1.43495419 5.44520996 -0.93046313 2.7913894 0 0 Z " fill="#F7A370" transform="translate(102,52)"/>
<path d="M0 0 C3.45328152 4.13460463 4.17940445 7.67168774 4 13 C3.27303003 15.60333842 2.28135499 17.58513867 1 20 C0.67 20.66 0.34 21.32 0 22 C-0.66 22 -1.32 22 -2 22 C-1.855625 20.783125 -1.71125 19.56625 -1.5625 18.3125 C-0.88136774 12.2212315 -0.44401931 6.11235086 0 0 Z " fill="#FDDFC9" transform="translate(111,49)"/>
<path d="M0 0 C0.14285714 8.57142857 0.14285714 8.57142857 -1 12 C-4.98440872 10.70775933 -6.63628473 9.41040443 -9 6 C-7.68969568 4.99712471 -6.37669473 3.99777175 -5.0625 3 C-4.33160156 2.443125 -3.60070313 1.88625 -2.84765625 1.3125 C-1 0 -1 0 0 0 Z " fill="#A67C6A" transform="translate(61,77)"/>
<path d="M0 0 C0.99 0.33 1.98 0.66 3 1 C2.360625 1.474375 1.72125 1.94875 1.0625 2.4375 C-1.84850272 6.05420035 -1.80649782 9.47204894 -2 14 C-4.0625 12.3125 -4.0625 12.3125 -6 10 C-6.09766173 6.19119238 -5.02188638 5.02402164 -2.4375 2.1875 C-1.2309375 1.1046875 -1.2309375 1.1046875 0 0 Z " fill="#B31E2E" transform="translate(52,101)"/>
<path d="M0 0 C0.99 0.66 1.98 1.32 3 2 C2.9131252 3.95917659 2.80495488 5.91741871 2.6875 7.875 C2.62949219 8.96554688 2.57148437 10.05609375 2.51171875 11.1796875 C2.34285156 12.11039063 2.17398438 13.04109375 2 14 C1.01 14.66 0.02 15.32 -1 16 C-2.55373847 12.89252306 -1.58528628 10.25773473 -1.0625 6.875 C-0.86785156 5.59367187 -0.67320313 4.31234375 -0.47265625 2.9921875 C-0.31667969 2.00476563 -0.16070312 1.01734375 0 0 Z " fill="#F9D6BE" transform="translate(53,85)"/>
<path d="M0 0 C0.33 0 0.66 0 1 0 C1.02725341 1.7290774 1.04650987 3.45828176 1.0625 5.1875 C1.07410156 6.15042969 1.08570313 7.11335938 1.09765625 8.10546875 C1.00486622 10.85576513 0.62111685 13.32479591 0 16 C-0.99 15.67 -1.98 15.34 -3 15 C-2.835 14.34 -2.67 13.68 -2.5 13 C-2.0756415 10.45384899 -1.99269096 8.36751088 -2.0625 5.8125 C-2 2 -2 2 0 0 Z " fill="#FDEFE6" transform="translate(50,84)"/>
<path d="M0 0 C2.97 1.98 2.97 1.98 6 4 C5.67 4.99 5.34 5.98 5 7 C3.35 7.33 1.7 7.66 0 8 C0 5.36 0 2.72 0 0 Z " fill="#F5A573" transform="translate(59,89)"/>
<path d="M0 0 C1.0680182 2.77684731 0.96475091 4.16022313 0.3125 7.125 C-1 10 -1 10 -2.875 11.4375 C-5.31555804 12.08353007 -6.64656559 11.84051229 -9 11 C-8.21625 10.79375 -7.4325 10.5875 -6.625 10.375 C-3.71731803 9.21285656 -3.71731803 9.21285656 -2.8125 6.0625 C-2.544375 5.051875 -2.27625 4.04125 -2 3 C-1.34 2.01 -0.68 1.02 0 0 Z " fill="#F28E55" transform="translate(96,72)"/>
<path d="M0 0 C0.66 0.66 1.32 1.32 2 2 C1.48050781 2.37511719 0.96101563 2.75023437 0.42578125 3.13671875 C-3.72252449 6.18085439 -7.47321686 9.25279291 -11 13 C-11.33 12.01 -11.66 11.02 -12 10 C-10.75160501 8.894019 -9.50120766 7.79029799 -8.25 6.6875 C-7.55390625 6.07261719 -6.8578125 5.45773438 -6.140625 4.82421875 C-4.14885494 3.12685266 -2.11101085 1.54522191 0 0 Z " fill="#B42134" transform="translate(45,53)"/>
<path d="M0 0 C0.5625 1.9375 0.5625 1.9375 1 4 C0.67 4.33 0.34 4.66 0 5 C-0.23363881 6.84891946 -0.41303635 8.70488031 -0.5625 10.5625 C-0.64628906 11.57441406 -0.73007812 12.58632812 -0.81640625 13.62890625 C-0.87699219 14.41136719 -0.93757813 15.19382812 -1 16 C-1.66 15.67 -2.32 15.34 -3 15 C-2.88623383 12.87436897 -2.75864369 10.7494739 -2.625 8.625 C-2.55539063 7.44164063 -2.48578125 6.25828125 -2.4140625 5.0390625 C-2 2 -2 2 0 0 Z " fill="#C07C58" transform="translate(63,75)"/>
<path d="M0 0 C-1.75 3.875 -1.75 3.875 -4 5 C-4 4.34 -4 3.68 -4 3 C-5.32 2.67 -6.64 2.34 -8 2 C-4.77208445 -0.1519437 -3.71599191 -0.20086443 0 0 Z " fill="#F28C4E" transform="translate(98,56)"/>
<path d="M0 0 C0.66 0.33 1.32 0.66 2 1 C2 2.65 2 4.3 2 6 C0.68 5.34 -0.64 4.68 -2 4 C-2 3.01 -2 2.02 -2 1 C-1.34 0.67 -0.68 0.34 0 0 Z " fill="#80747B" transform="translate(55,81)"/>
</svg>
