<?xml version="1.0" encoding="UTF-8"?>
<svg xmlns="http://www.w3.org/2000/svg" viewBox="0 0 64 64" role="img" aria-label="Whisper">
  <defs>
    <linearGradient id="skin" x1="0" y1="0" x2="1" y2="1">
      <stop offset="0%" stop-color="#f3c7a6"/>
      <stop offset="100%" stop-color="#d9a47c"/>
    </linearGradient>
    <linearGradient id="hair" x1="0" y1="0" x2="1" y2="1">
      <stop offset="0%" stop-color="#334155"/>
      <stop offset="100%" stop-color="#0f172a"/>
    </linearGradient>
    <linearGradient id="shirt" x1="0" y1="0" x2="1" y2="1">
      <stop offset="0%" stop-color="#60a5fa"/>
      <stop offset="100%" stop-color="#2563eb"/>
    </linearGradient>
  </defs>

  <!-- Neck/shoulder -->
  <path d="M17 48c4-6 10-9 18-9 5 0 8 2 10 4v7H17z" fill="url(#shirt)"/>

  <!-- Side profile head -->
  <path d="M20 29c0-8 6-14 13-14 7 0 12 5 12 11 0 3-1 6-3 8-1 1-1 2-1 3v2c0 1-1 2-2 2H30c-6 0-10-5-10-12z" fill="url(#skin)"/>

  <!-- Hair cap -->
  <path d="M21 27c1-7 7-12 14-12 6 0 10 3 12 8-2-2-5-3-8-3-4 0-7 2-9 5-1 1-2 3-2 5-3-1-5-2-7-3z" fill="url(#hair)"/>

  <!-- Nose -->
  <path d="M42 30c2 1 2 3 0 4" fill="none" stroke="#c48864" stroke-width="1.6" stroke-linecap="round"/>

  <!-- Raised whisper hand near mouth -->
  <path d="M37 34c4 1 7 4 8 7-3 1-7 0-10-2-1-1-1-3 0-4 0-1 1-1 2-1z" fill="url(#skin)"/>

  <!-- Whisper accent lines -->
  <path d="M49 29c2 0 3 1 4 2" fill="none" stroke="#64748b" stroke-width="1.8" stroke-linecap="round"/>
  <path d="M50 33c2 0 3 1 4 2" fill="none" stroke="#64748b" stroke-width="1.8" stroke-linecap="round"/>
</svg>
